<svg width="495" height="104" viewBox="0 0 495 104" fill="none" xmlns="http://www.w3.org/2000/svg">
<path d="M111.176 72H90.4688V18.1818H110.966C116.502 18.1818 121.285 19.2592 125.314 21.4141C129.361 23.5514 132.479 26.6347 134.669 30.6641C136.876 34.6759 137.98 39.4848 137.98 45.0909C137.98 50.697 136.885 55.5147 134.695 59.544C132.505 63.5559 129.405 66.6392 125.393 68.794C121.381 70.9313 116.642 72 111.176 72ZM105.08 59.5966H110.651C113.313 59.5966 115.582 59.1674 117.457 58.3089C119.349 57.4505 120.785 55.9702 121.766 53.8679C122.765 51.7656 123.264 48.84 123.264 45.0909C123.264 41.3419 122.756 38.4162 121.74 36.3139C120.741 34.2116 119.27 32.7313 117.325 31.8729C115.398 31.0144 113.033 30.5852 110.23 30.5852H105.08V59.5966ZM150.144 72H134.377L152.141 18.1818H172.113L189.877 72H174.11L162.337 33.0028H161.917L150.144 72ZM147.201 50.767H176.843V61.6989H147.201V50.767ZM216.796 35C216.656 33.2481 215.999 31.8816 214.825 30.9006C213.669 29.9195 211.908 29.429 209.543 29.429C208.036 29.429 206.801 29.6129 205.838 29.9808C204.892 30.3312 204.191 30.813 203.736 31.4261C203.28 32.0393 203.044 32.7401 203.026 33.5284C202.991 34.1766 203.105 34.7635 203.368 35.2891C203.648 35.7971 204.086 36.2614 204.682 36.6818C205.277 37.0848 206.039 37.4527 206.968 37.7855C207.896 38.1184 209 38.4162 210.279 38.679L214.694 39.625C217.672 40.2557 220.221 41.0878 222.341 42.1214C224.46 43.1551 226.195 44.3726 227.544 45.7741C228.893 47.1581 229.883 48.7173 230.513 50.4517C231.161 52.1861 231.494 54.0781 231.512 56.1278C231.494 59.6667 230.61 62.6624 228.858 65.1151C227.106 67.5677 224.601 69.4335 221.342 70.7124C218.101 71.9912 214.203 72.6307 209.648 72.6307C204.971 72.6307 200.889 71.9387 197.402 70.5547C193.934 69.1707 191.236 67.0421 189.309 64.169C187.399 61.2784 186.436 57.5819 186.418 53.0795H200.293C200.381 54.7263 200.792 56.1103 201.528 57.2315C202.264 58.3527 203.298 59.2024 204.629 59.7805C205.978 60.3587 207.581 60.6477 209.438 60.6477C210.997 60.6477 212.302 60.455 213.353 60.0696C214.405 59.6842 215.202 59.1499 215.745 58.4666C216.288 57.7834 216.568 57.0038 216.586 56.1278C216.568 55.3045 216.297 54.5862 215.771 53.973C215.263 53.3423 214.422 52.7817 213.248 52.2912C212.075 51.7831 210.489 51.3101 208.492 50.8722L203.131 49.7159C198.366 48.6823 194.608 46.9567 191.858 44.5391C189.125 42.1039 187.767 38.7841 187.785 34.5795C187.767 31.1634 188.678 28.1764 190.517 25.6186C192.374 23.0433 194.941 21.0374 198.217 19.6008C201.511 18.1643 205.286 17.446 209.543 17.446C213.888 17.446 217.646 18.1731 220.816 19.6271C223.987 21.0812 226.431 23.1309 228.148 25.7763C229.883 28.4041 230.758 31.4787 230.776 35H216.796ZM231.89 72V18.1818H246.5V39.2045H265.841V18.1818H280.452V72H265.841V50.9773H246.5V72H231.89ZM320.783 35C320.643 33.2481 319.986 31.8816 318.812 30.9006C317.656 29.9195 315.895 29.429 313.53 29.429C312.024 29.429 310.789 29.6129 309.825 29.9808C308.879 30.3312 308.178 30.813 307.723 31.4261C307.267 32.0393 307.031 32.7401 307.013 33.5284C306.978 34.1766 307.092 34.7635 307.355 35.2891C307.635 35.7971 308.073 36.2614 308.669 36.6818C309.265 37.0848 310.027 37.4527 310.955 37.7855C311.884 38.1184 312.987 38.4162 314.266 38.679L318.681 39.625C321.659 40.2557 324.208 41.0878 326.328 42.1214C328.448 43.1551 330.182 44.3726 331.531 45.7741C332.88 47.1581 333.87 48.7173 334.501 50.4517C335.149 52.1861 335.482 54.0781 335.499 56.1278C335.482 59.6667 334.597 62.6624 332.845 65.1151C331.093 67.5677 328.588 69.4335 325.329 70.7124C322.088 71.9912 318.19 72.6307 313.636 72.6307C308.958 72.6307 304.876 71.9387 301.39 70.5547C297.921 69.1707 295.223 67.0421 293.296 64.169C291.386 61.2784 290.423 57.5819 290.405 53.0795H304.28C304.368 54.7263 304.78 56.1103 305.515 57.2315C306.251 58.3527 307.285 59.2024 308.616 59.7805C309.965 60.3587 311.568 60.6477 313.425 60.6477C314.984 60.6477 316.29 60.455 317.341 60.0696C318.392 59.6842 319.189 59.1499 319.732 58.4666C320.275 57.7834 320.555 57.0038 320.573 56.1278C320.555 55.3045 320.284 54.5862 319.758 53.973C319.25 53.3423 318.409 52.7817 317.236 52.2912C316.062 51.7831 314.476 51.3101 312.479 50.8722L307.118 49.7159C302.353 48.6823 298.596 46.9567 295.845 44.5391C293.112 42.1039 291.754 38.7841 291.772 34.5795C291.754 31.1634 292.665 28.1764 294.505 25.6186C296.362 23.0433 298.928 21.0374 302.204 19.6008C305.498 18.1643 309.273 17.446 313.53 17.446C317.875 17.446 321.633 18.1731 324.804 19.6271C327.975 21.0812 330.419 23.1309 332.136 25.7763C333.87 28.4041 334.746 31.4787 334.763 35H320.783ZM335.877 72V18.1818H350.488V39.9403H351.224L367.411 18.1818H384.44L366.255 42.1477L384.86 72H367.411L355.323 51.8182L350.488 58.125V72H335.877ZM398.206 18.1818V72H383.595V18.1818H398.206ZM446.516 18.1818V72H434.323L414.877 43.7244H414.561V72H399.951V18.1818H412.354L431.485 46.3523H431.905V18.1818H446.516ZM477.259 35C477.118 33.2481 476.461 31.8816 475.288 30.9006C474.131 29.9195 472.371 29.429 470.006 29.429C468.499 29.429 467.264 29.6129 466.3 29.9808C465.354 30.3312 464.654 30.813 464.198 31.4261C463.743 32.0393 463.506 32.7401 463.489 33.5284C463.454 34.1766 463.568 34.7635 463.83 35.2891C464.111 35.7971 464.549 36.2614 465.144 36.6818C465.74 37.0848 466.502 37.4527 467.43 37.7855C468.359 38.1184 469.463 38.4162 470.742 38.679L475.156 39.625C478.135 40.2557 480.684 41.0878 482.803 42.1214C484.923 43.1551 486.657 44.3726 488.006 45.7741C489.355 47.1581 490.345 48.7173 490.976 50.4517C491.624 52.1861 491.957 54.0781 491.974 56.1278C491.957 59.6667 491.072 62.6624 489.32 65.1151C487.568 67.5677 485.063 69.4335 481.805 70.7124C478.564 71.9912 474.666 72.6307 470.111 72.6307C465.433 72.6307 461.351 71.9387 457.865 70.5547C454.396 69.1707 451.698 67.0421 449.771 64.169C447.862 61.2784 446.898 57.5819 446.881 53.0795H460.756C460.843 54.7263 461.255 56.1103 461.991 57.2315C462.727 58.3527 463.76 59.2024 465.092 59.7805C466.441 60.3587 468.044 60.6477 469.901 60.6477C471.46 60.6477 472.765 60.455 473.816 60.0696C474.867 59.6842 475.664 59.1499 476.207 58.4666C476.751 57.7834 477.031 57.0038 477.048 56.1278C477.031 55.3045 476.759 54.5862 476.234 53.973C475.726 53.3423 474.885 52.7817 473.711 52.2912C472.537 51.7831 470.952 51.3101 468.955 50.8722L463.594 49.7159C458.829 48.6823 455.071 46.9567 452.32 44.5391C449.587 42.1039 448.23 38.7841 448.247 34.5795C448.23 31.1634 449.141 28.1764 450.98 25.6186C452.837 23.0433 455.404 21.0374 458.68 19.6008C461.973 18.1643 465.749 17.446 470.006 17.446C474.35 17.446 478.108 18.1731 481.279 19.6271C484.45 21.0812 486.894 23.1309 488.611 25.7763C490.345 28.4041 491.221 31.4787 491.239 35H477.259Z" fill="white"/>
<path d="M41.4747 54.0236V54.6325C41.4747 55.255 41.2272 55.8524 40.787 56.2927C40.3467 56.7329 39.7493 56.9799 39.1268 56.9799H0V7.91553H28.9929C31.4768 7.91553 33.9567 8.01357 36.4336 8.20965C42.3362 9.07646 53.7809 11.8731 61.6287 20.8202H21.3461C19.3017 20.8227 17.2781 21.2313 15.3929 22.0222C13.5076 22.8131 11.7982 23.9705 10.3639 25.4274C8.92961 26.8843 7.79894 28.6115 7.03755 30.5087C6.27616 32.4063 5.89926 34.4359 5.92862 36.48C6.05247 44.9474 13.1266 51.6707 21.5989 51.6707H39.1424C39.7629 51.6762 40.3557 51.9262 40.7925 52.367C41.2297 52.8077 41.4747 53.4031 41.4747 54.0236Z" fill="white"/>
<path d="M68.7803 33.5649H21.4441H21.248C20.664 33.6573 20.1304 33.9504 19.7394 34.3942C19.3485 34.838 19.1247 35.4043 19.1067 35.9951V36.5112C19.1067 37.6206 20.1387 38.5287 21.4544 38.5287H39.5139C43.5023 38.6833 47.2759 40.3761 50.0434 43.2526C52.811 46.1286 54.3577 49.9649 54.3587 53.9563V54.6893C54.3592 56.7169 53.9606 58.7244 53.185 60.5979C52.4089 62.4713 51.2718 64.1731 49.8381 65.6069C48.4044 67.0406 46.7026 68.1776 44.8291 68.9532C42.9556 69.7288 40.9481 70.1279 38.9205 70.1274H0.221832V82.5109H26.5369L30.8347 82.4848L30.9176 81.1022C30.897 80.9285 30.915 80.7523 30.9698 80.5862C31.025 80.42 31.1154 80.2679 31.2358 80.1404C31.3558 80.0134 31.5024 79.914 31.665 79.8492C31.8277 79.785 32.0024 79.7569 32.1771 79.7669C32.3518 79.7775 32.522 79.8261 32.6761 79.909C32.8297 79.9923 32.9637 80.1083 33.0681 80.2488C33.1721 80.3894 33.2444 80.5515 33.2795 80.7227C33.3141 80.8944 33.3111 81.0711 33.2705 81.2413L33.1982 82.4486L35.9898 82.3818C36.8171 82.3628 37.6424 82.2925 38.4612 82.17C42.5475 81.5666 49.8125 79.8688 56.314 75.1941C63.6874 69.9105 70.1578 60.8243 70.1578 45.1948C70.1904 41.2757 69.7275 37.3681 68.7803 33.5649Z" fill="white"/>
<path d="M42.6404 33.9881H36.1494V31.4856V31.2738L36.2062 28.4515L35.8452 28.1677L36.2062 27.8736V24.1069L35.8452 23.8231L36.2112 23.5342V19.9481L35.8608 19.6643L36.2112 19.3754L36.2373 15.4127L35.8814 15.1289L36.2423 14.8399V11.419L35.8914 11.1352L36.2473 10.8462L36.294 2.41511L36.2629 2.36351C36.1906 2.27064 34.5601 -0.00484875 32.1354 0.000321901C31.3573 -0.00866398 30.5887 0.170603 29.8955 0.522809C29.2017 0.874965 28.6033 1.38967 28.1518 2.02295C28.0637 2.15081 27.9827 2.28344 27.9093 2.42028V2.46155L27.8422 10.8617L28.1827 11.1558L27.8319 11.4448V14.8554L28.1724 15.1547L27.8267 15.4385V19.396L28.1673 19.685L27.8216 19.9791V23.5548L28.1621 23.8438L27.8164 24.1379V27.8942L28.157 28.1883L27.8164 28.4721L27.5791 32.3832C26.5473 32.5689 25.53 32.8275 24.5348 33.1573C23.8293 33.3847 23.1398 33.6588 22.4709 33.9775L22.1045 34.1633L22.0013 34.2255L22.089 35.4173L22.7701 36.8982L26.413 37.3109L26.3716 38.5287L26.2427 42.4449L26.2891 42.5066C26.4196 42.7049 26.4779 42.9418 26.4542 43.1778C26.4233 44.6637 26.3356 47.9815 26.2272 52.1918C26.0827 57.4648 25.9125 64.1315 25.7628 70.1374C25.6493 75.0962 25.5513 79.6058 25.5203 82.5209C25.5203 82.934 25.5203 83.3105 25.5203 83.6564C25.9382 95.7613 32.904 102.928 32.9763 103L33.2499 103.274L33.296 102.887C33.296 102.722 35.0455 89.0997 36.0104 82.3919C36.2529 80.7252 36.4386 79.4873 36.5521 78.9868C37.0681 76.4737 37.176 72.3769 37.1816 70.1274C37.1816 69.1831 37.1816 68.5792 37.1816 68.5381L37.0832 40.0197L36.6344 38.5182L36.547 38.214C36.2167 37.8114 36.1183 36.8877 36.1083 36.0774H42.6509C42.7578 36.0774 42.8633 36.0563 42.9621 36.0157C43.0605 35.9745 43.1504 35.9143 43.2257 35.8385C43.301 35.7627 43.3602 35.6728 43.4009 35.5739C43.4411 35.475 43.4616 35.3691 43.4611 35.2622V34.7878C43.4596 34.6814 43.4375 34.5764 43.3954 34.4785C43.3532 34.3807 43.2925 34.2923 43.2162 34.218C43.1404 34.1437 43.05 34.085 42.9511 34.0458C42.8527 34.0062 42.7468 33.9866 42.6404 33.9881ZM33.1826 83.1143C33.2037 83.2885 33.1861 83.4647 33.1319 83.6308C33.0772 83.7975 32.9868 83.9496 32.8668 84.0771C32.7474 84.2051 32.6008 84.3045 32.4381 84.3698C32.2755 84.4345 32.1008 84.4632 31.9261 84.4531C31.7514 84.4431 31.5807 84.3949 31.4266 84.312C31.2725 84.2287 31.1384 84.1133 31.034 83.9727C30.9296 83.8321 30.8568 83.6705 30.8217 83.4993C30.7865 83.3276 30.789 83.1504 30.8297 82.9802L30.8608 82.5003L30.9381 81.1178C30.9201 80.9451 30.9396 80.7704 30.9959 80.6057C31.0516 80.4416 31.143 80.291 31.2629 80.1655C31.3829 80.04 31.529 79.9421 31.6906 79.8783C31.8523 79.8151 32.026 79.7875 32.1992 79.7975C32.3729 79.8076 32.5415 79.8557 32.6946 79.9376C32.8478 80.0199 32.9813 80.1344 33.0857 80.2734C33.1901 80.412 33.2629 80.5721 33.2991 80.7418C33.3357 80.912 33.3347 81.0877 33.296 81.2568L33.2238 82.4642L33.1826 83.1143Z" fill="white"/>
</svg>
